<svg width="302" height="150" viewBox="0 0 302 150" fill="none" xmlns="http://www.w3.org/2000/svg">
<path d="M0.375 110.083H22.8333C22.6667 111.281 22.5104 112.432 22.375 113.542C22.25 114.641 22.1875 115.745 22.1875 116.854C22.1875 121.865 23.2083 125.333 25.25 127.25C27.2917 129.167 29.5052 130.125 31.8958 130.125C34.1042 130.125 36.0729 129.354 37.8125 127.813C39.5625 126.281 40.4375 123.313 40.4375 118.896C40.4375 116.172 40.0521 113.516 39.2917 110.917C38.526 108.323 37.2708 105.24 35.5208 101.667C33.7813 98.099 31.3385 93.5521 28.1875 88.0208C25.8958 83.9375 23.8333 79.7708 22 75.5208C20.1771 71.2708 18.7135 67.2188 17.6042 63.3542C16.4896 59.4792 15.9375 56.1823 15.9375 53.4583C15.9375 47.0729 17.3802 41.7917 20.2708 37.625C23.1719 33.4583 26.8958 30.3542 31.4375 28.3125C35.9896 26.2708 40.6927 25.25 45.5417 25.25C51.3177 25.25 56.526 26.5313 61.1667 29.0833C65.8021 31.6406 69.4583 35.4063 72.125 40.375C74.8021 45.349 76.1458 51.4948 76.1458 58.8125C76.1458 60.6771 76.0208 62.625 75.7708 64.6667L53.3125 64.5417C53.8229 61.7396 54.0833 59.2708 54.0833 57.1458C54.0833 53.1458 53.3802 50.2604 51.9792 48.4792C50.5729 46.6875 48.8958 45.7917 46.9375 45.7917C45.3229 45.7917 43.6458 46.5156 41.8958 47.9583C40.1563 49.4063 39.2917 52.125 39.2917 56.125C39.2917 58.7656 39.7969 61.9792 40.8125 65.7708C41.8385 69.5521 43.5833 73.6458 46.0417 78.0625C50.8021 86.5781 54.6094 94.2396 57.4583 101.042C60.3021 107.833 61.7292 114.25 61.7292 120.292C61.7292 126.583 60.2188 131.938 57.2083 136.354C54.1927 140.781 50.3438 144.125 45.6667 146.375C40.9844 148.625 36.1354 149.75 31.125 149.75C26.026 149.75 21.0938 148.51 16.3333 146.042C11.5677 143.583 7.66146 139.885 4.60417 134.958C1.53646 130.026 0 123.818 0 116.333C0 114.292 0.125 112.208 0.375 110.083Z" fill="black"/>
<path d="M110.721 38.021C117.857 38.021 123.68 39.2397 128.18 41.6668C132.69 44.0835 136.034 47.2918 138.201 51.2918C140.367 55.2814 141.451 59.7397 141.451 64.6668C141.451 70.2918 140.128 74.995 137.492 78.771C134.867 82.5522 131.274 85.5731 126.721 87.8335C122.164 90.0835 117.018 91.7241 111.284 92.7502C105.544 93.7658 99.6173 94.271 93.4923 94.271C89.4923 94.271 85.409 94.1043 81.2423 93.771C77.0756 93.4272 72.9506 92.9533 68.8673 92.3543V70.5418C70.06 70.8908 71.2267 71.2085 72.3673 71.5002C73.5184 71.7918 74.7319 72.0731 76.0131 72.3335C76.4402 65.6981 78.2059 59.8075 81.3048 54.6668C84.4142 49.5158 88.4975 45.4533 93.5548 42.4793C98.6069 39.5106 104.331 38.021 110.721 38.021ZM101.784 75.896C105.185 75.896 108.289 75.5575 111.096 74.8752C113.899 74.1981 116.169 73.0731 117.909 71.5002C119.659 69.9325 120.534 67.8283 120.534 65.1877C120.534 62.5522 119.43 60.4064 117.221 58.7502C115.013 57.0835 112.456 56.2502 109.555 56.2502C106.664 56.2502 104.138 57.1252 101.971 58.8752C99.8048 60.6147 98.1434 62.8022 96.9923 65.4377C95.8517 68.0783 95.284 70.7606 95.284 73.4793C95.284 73.8127 95.284 74.1564 95.284 74.5002C95.284 74.8335 95.3256 75.2189 95.409 75.646C96.5027 75.7293 97.5809 75.7918 98.6381 75.8335C99.7059 75.8752 100.753 75.896 101.784 75.896ZM98.2215 97.0835C101.357 101.667 105.289 105.453 110.013 108.438C114.732 111.412 119.768 113.24 125.117 113.917V138.792C117.211 137.943 109.961 135.5 103.367 131.458C96.784 127.417 91.2319 122.313 86.7215 116.146C82.2215 109.979 78.9923 103.287 77.034 96.0627C80.435 96.4793 83.2631 96.8022 85.5131 97.021C87.7736 97.2293 89.8777 97.3335 91.8256 97.3335C92.8517 97.3335 93.8934 97.3127 94.9506 97.271C96.0184 97.2293 97.1069 97.1668 98.2215 97.0835Z" fill="black"/>
<path d="M221.433 59.5833C217.849 67.1406 215.953 75.3646 215.745 84.25C215.537 93.1406 217.214 102.813 220.787 113.271H201.016C200.167 110.813 199.381 108.417 198.662 106.083C197.938 103.74 197.276 101.458 196.683 99.25C193.959 103.5 190.104 107.031 185.12 109.833C180.146 112.641 173.709 113.958 165.808 113.792C159.766 113.792 155.188 112.135 152.078 108.813C148.979 105.495 147.214 101.031 146.787 95.4167C146.37 89.8073 147.12 83.5781 149.037 76.7292C150.953 69.8854 153.86 62.974 157.766 56H183.412C180.688 60.5156 178.245 65.0937 176.078 69.7292C173.912 74.3542 172.375 78.5833 171.474 82.4167C170.584 86.2396 170.563 89.3229 171.412 91.6667C172.271 94 174.354 95.1667 177.662 95.1667C181.745 95.1667 185.146 94.0625 187.87 91.8542C190.589 89.6354 192.506 86.8281 193.62 83.4375C193.271 79.4375 193.224 75.4583 193.474 71.5C193.735 67.5417 194.422 63.5729 195.537 59.5833H221.433Z" fill="black"/>
<path d="M301.388 34.3125C301.388 37.6354 300.748 41.5729 299.471 46.125C298.19 50.6667 296.253 55.4531 293.659 60.4792C291.076 65.4948 287.721 70.4271 283.596 75.2708C279.471 80.1198 274.602 84.625 268.992 88.7917C263.378 92.9583 256.935 96.4271 249.659 99.1875C242.393 101.953 234.253 103.677 225.242 104.354V81.6458C230.852 81.1354 235.867 80.2396 240.284 78.9583C239.518 75.7396 238.878 72.0625 238.367 67.9375C237.867 63.8125 237.617 58.599 237.617 52.2917C237.617 45.9167 238.399 39.625 239.971 33.4167C241.539 27.2083 243.831 21.599 246.846 16.5833C249.873 11.5729 253.513 7.55729 257.763 4.54167C262.013 1.51563 266.815 0 272.18 0C278.815 0 284.305 1.44792 288.638 4.33333C292.971 7.22396 296.18 11.2448 298.263 16.3958C300.346 21.5365 301.388 27.5104 301.388 34.3125ZM259.68 69.3958C264.524 65.7448 268.414 61.7708 271.346 57.4792C274.274 53.1771 276.399 48.9167 277.721 44.7083C279.039 40.5 279.701 36.8698 279.701 33.8125C279.701 25.6458 277.19 21.5625 272.18 21.5625C269.805 21.5625 267.763 22.625 266.055 24.75C264.357 26.875 262.956 29.6406 261.846 33.0417C260.732 36.4479 259.919 40.125 259.409 44.0833C258.909 48.0313 258.659 51.8333 258.659 55.5C258.659 58.125 258.742 60.6146 258.909 62.9583C259.076 65.2917 259.331 67.4375 259.68 69.3958ZM266.43 94.6458C270.096 102.729 274.961 108.792 281.034 112.833C287.117 116.875 293.435 119.359 299.992 120.292V148.229C295.06 147.63 289.977 146.208 284.742 143.958C279.518 141.708 274.503 138.667 269.701 134.833C264.893 131.01 260.513 126.443 256.555 121.125C252.596 115.807 249.336 109.786 246.784 103.063C250.018 102.385 252.617 101.62 254.576 100.771C256.534 99.9271 258.378 98.9948 260.117 97.9792C261.867 96.9531 263.971 95.8438 266.43 94.6458Z" fill="black"/>
<path d="M127.483 137.419C127.233 137.419 127.03 137.346 126.879 137.19C126.722 137.039 126.649 136.846 126.649 136.607V128.898C126.649 128.664 126.722 128.471 126.879 128.315C127.03 128.164 127.222 128.086 127.462 128.086H131.795C132.03 128.086 132.222 128.164 132.379 128.315C132.53 128.456 132.608 128.643 132.608 128.878C132.608 129.076 132.53 129.247 132.379 129.398C132.222 129.555 132.03 129.628 131.795 129.628H128.191L128.316 129.461V132.148L128.233 131.961H131.191C131.425 131.961 131.618 132.039 131.774 132.19C131.925 132.331 132.004 132.518 132.004 132.753C132.004 132.951 131.925 133.122 131.774 133.273C131.618 133.43 131.425 133.503 131.191 133.503H128.191L128.316 133.378V136.607C128.316 136.846 128.233 137.039 128.066 137.19C127.899 137.346 127.701 137.419 127.483 137.419Z" fill="black"/>
<path d="M134.245 137.419C133.995 137.419 133.771 137.346 133.578 137.19C133.38 137.039 133.286 136.846 133.286 136.607V128.898C133.286 128.664 133.359 128.471 133.516 128.315C133.667 128.164 133.859 128.086 134.099 128.086H137.932C138.401 128.086 138.839 128.211 139.245 128.461C139.646 128.701 139.974 129.034 140.224 129.461C140.474 129.893 140.599 130.393 140.599 130.961C140.599 131.294 140.526 131.622 140.391 131.94C140.25 132.263 140.063 132.555 139.828 132.815C139.589 133.065 139.328 133.263 139.036 133.398V133.107C139.286 133.232 139.495 133.388 139.661 133.565C139.828 133.747 139.958 133.951 140.057 134.169C140.151 134.378 140.208 134.602 140.224 134.836C140.25 135.06 140.271 135.253 140.286 135.419C140.297 135.586 140.328 135.732 140.37 135.857C140.411 135.971 140.484 136.055 140.599 136.107C140.792 136.232 140.911 136.409 140.953 136.628C141.005 136.836 140.964 137.023 140.828 137.19C140.729 137.305 140.604 137.378 140.453 137.419C140.297 137.445 140.146 137.445 139.995 137.419C139.839 137.378 139.714 137.336 139.62 137.294C139.464 137.201 139.313 137.065 139.161 136.898C139.005 136.721 138.88 136.482 138.786 136.19C138.703 135.898 138.661 135.523 138.661 135.065C138.661 134.914 138.63 134.773 138.578 134.648C138.521 134.513 138.443 134.398 138.349 134.315C138.25 134.221 138.125 134.148 137.974 134.107C137.818 134.055 137.646 134.023 137.453 134.023H134.745L134.953 133.711V136.607C134.953 136.846 134.891 137.039 134.766 137.19C134.641 137.346 134.464 137.419 134.245 137.419ZM134.766 132.648H137.87C138.036 132.648 138.188 132.581 138.328 132.44C138.479 132.289 138.604 132.086 138.703 131.836C138.813 131.576 138.87 131.294 138.87 131.003C138.87 130.602 138.755 130.273 138.536 130.023C138.328 129.763 138.104 129.628 137.87 129.628H134.786L134.953 129.19V132.961L134.766 132.648Z" fill="black"/>
<path d="M150.173 132.753C150.173 133.419 150.058 134.044 149.84 134.628C149.616 135.201 149.303 135.706 148.902 136.148C148.496 136.596 148.017 136.94 147.465 137.19C146.907 137.424 146.303 137.544 145.652 137.544C144.985 137.544 144.371 137.424 143.819 137.19C143.277 136.94 142.803 136.596 142.402 136.148C141.996 135.706 141.683 135.201 141.465 134.628C141.241 134.044 141.131 133.419 141.131 132.753C141.131 132.086 141.241 131.471 141.465 130.898C141.683 130.315 141.996 129.805 142.402 129.357C142.803 128.914 143.277 128.576 143.819 128.336C144.371 128.086 144.985 127.961 145.652 127.961C146.303 127.961 146.907 128.086 147.465 128.336C148.017 128.576 148.496 128.914 148.902 129.357C149.303 129.805 149.616 130.315 149.84 130.898C150.058 131.471 150.173 132.086 150.173 132.753ZM148.444 132.753C148.444 132.159 148.319 131.617 148.069 131.128C147.829 130.643 147.506 130.263 147.09 129.982C146.673 129.69 146.194 129.544 145.652 129.544C145.095 129.544 144.61 129.69 144.194 129.982C143.777 130.263 143.449 130.643 143.215 131.128C142.975 131.602 142.86 132.143 142.86 132.753C142.86 133.352 142.975 133.893 143.215 134.378C143.449 134.867 143.777 135.253 144.194 135.544C144.61 135.826 145.095 135.961 145.652 135.961C146.194 135.961 146.673 135.826 147.09 135.544C147.506 135.253 147.829 134.867 148.069 134.378C148.319 133.893 148.444 133.352 148.444 132.753Z" fill="black"/>
<path d="M157.936 128.086C158.144 128.086 158.311 128.159 158.436 128.294C158.571 128.435 158.644 128.617 158.644 128.836V136.607C158.644 136.846 158.566 137.039 158.415 137.19C158.258 137.346 158.066 137.419 157.831 137.419C157.717 137.419 157.602 137.398 157.477 137.357C157.363 137.315 157.274 137.263 157.206 137.19L151.977 130.544L152.311 130.336V136.669C152.311 136.893 152.238 137.076 152.102 137.211C151.977 137.352 151.8 137.419 151.581 137.419C151.357 137.419 151.175 137.352 151.04 137.211C150.915 137.076 150.852 136.893 150.852 136.669V128.898C150.852 128.664 150.925 128.471 151.081 128.315C151.232 128.164 151.425 128.086 151.665 128.086C151.79 128.086 151.915 128.117 152.04 128.169C152.175 128.211 152.279 128.284 152.352 128.378L157.436 134.857L157.206 135.023V128.836C157.206 128.617 157.269 128.435 157.394 128.294C157.529 128.159 157.712 128.086 157.936 128.086Z" fill="black"/>
<path d="M162.962 137.419C162.712 137.419 162.503 137.346 162.337 137.19C162.18 137.039 162.107 136.846 162.107 136.607V128.878H163.837V136.607C163.837 136.846 163.753 137.039 163.587 137.19C163.42 137.346 163.212 137.419 162.962 137.419ZM160.003 129.628C159.779 129.628 159.587 129.56 159.42 129.419C159.264 129.268 159.191 129.076 159.191 128.836C159.191 128.617 159.264 128.435 159.42 128.294C159.587 128.159 159.779 128.086 160.003 128.086H165.92C166.154 128.086 166.347 128.159 166.503 128.294C166.654 128.435 166.732 128.622 166.732 128.857C166.732 129.096 166.654 129.284 166.503 129.419C166.347 129.56 166.154 129.628 165.92 129.628H160.003Z" fill="black"/>
<path d="M168.098 128.086H172.556C172.79 128.086 172.983 128.164 173.139 128.315C173.29 128.456 173.368 128.643 173.368 128.878C173.368 129.102 173.29 129.284 173.139 129.419C172.983 129.56 172.79 129.628 172.556 129.628H168.827L168.952 129.398V132.003L168.848 131.878H171.973C172.191 131.878 172.379 131.956 172.535 132.107C172.702 132.263 172.785 132.451 172.785 132.669C172.785 132.893 172.702 133.076 172.535 133.211C172.379 133.352 172.191 133.419 171.973 133.419H168.889L168.952 133.315V136.003L168.848 135.878H172.556C172.79 135.878 172.983 135.961 173.139 136.128C173.29 136.284 173.368 136.461 173.368 136.669C173.368 136.893 173.29 137.076 173.139 137.211C172.983 137.352 172.79 137.419 172.556 137.419H168.098C167.858 137.419 167.665 137.346 167.514 137.19C167.358 137.039 167.285 136.846 167.285 136.607V128.898C167.285 128.664 167.358 128.471 167.514 128.315C167.665 128.164 167.858 128.086 168.098 128.086Z" fill="black"/>
<path d="M181.139 128.086C181.347 128.086 181.514 128.159 181.639 128.294C181.774 128.435 181.847 128.617 181.847 128.836V136.607C181.847 136.846 181.769 137.039 181.618 137.19C181.462 137.346 181.269 137.419 181.035 137.419C180.92 137.419 180.805 137.398 180.68 137.357C180.566 137.315 180.477 137.263 180.41 137.19L175.18 130.544L175.514 130.336V136.669C175.514 136.893 175.441 137.076 175.305 137.211C175.18 137.352 175.003 137.419 174.785 137.419C174.561 137.419 174.378 137.352 174.243 137.211C174.118 137.076 174.055 136.893 174.055 136.669V128.898C174.055 128.664 174.128 128.471 174.285 128.315C174.436 128.164 174.628 128.086 174.868 128.086C174.993 128.086 175.118 128.117 175.243 128.169C175.378 128.211 175.483 128.284 175.555 128.378L180.639 134.857L180.41 135.023V128.836C180.41 128.617 180.472 128.435 180.597 128.294C180.733 128.159 180.915 128.086 181.139 128.086Z" fill="black"/>
<path d="M186.998 128.086C187.634 128.086 188.207 128.211 188.707 128.461C189.207 128.701 189.623 129.034 189.957 129.461C190.3 129.893 190.561 130.393 190.727 130.961C190.904 131.518 190.998 132.117 190.998 132.753C190.998 133.617 190.837 134.398 190.519 135.107C190.212 135.815 189.759 136.378 189.165 136.794C188.582 137.211 187.858 137.419 186.998 137.419H183.811C183.571 137.419 183.378 137.346 183.227 137.19C183.071 137.039 182.998 136.846 182.998 136.607V128.898C182.998 128.664 183.071 128.471 183.227 128.315C183.378 128.164 183.571 128.086 183.811 128.086H186.998ZM186.873 135.878C187.425 135.878 187.878 135.742 188.227 135.461C188.587 135.169 188.852 134.789 189.019 134.315C189.186 133.831 189.269 133.31 189.269 132.753C189.269 132.336 189.217 131.94 189.123 131.565C189.024 131.19 188.878 130.857 188.686 130.565C188.488 130.273 188.238 130.044 187.936 129.878C187.644 129.711 187.29 129.628 186.873 129.628H184.54L184.665 129.503V136.023L184.582 135.878H186.873Z" fill="black"/>
<path d="M198.553 128.086C199.188 128.086 199.761 128.211 200.261 128.461C200.761 128.701 201.178 129.034 201.511 129.461C201.855 129.893 202.115 130.393 202.282 130.961C202.459 131.518 202.553 132.117 202.553 132.753C202.553 133.617 202.392 134.398 202.074 135.107C201.767 135.815 201.313 136.378 200.72 136.794C200.136 137.211 199.412 137.419 198.553 137.419H195.365C195.126 137.419 194.933 137.346 194.782 137.19C194.626 137.039 194.553 136.846 194.553 136.607V128.898C194.553 128.664 194.626 128.471 194.782 128.315C194.933 128.164 195.126 128.086 195.365 128.086H198.553ZM198.428 135.878C198.98 135.878 199.433 135.742 199.782 135.461C200.142 135.169 200.407 134.789 200.574 134.315C200.74 133.831 200.824 133.31 200.824 132.753C200.824 132.336 200.772 131.94 200.678 131.565C200.579 131.19 200.433 130.857 200.24 130.565C200.043 130.273 199.793 130.044 199.49 129.878C199.199 129.711 198.845 129.628 198.428 129.628H196.095L196.22 129.503V136.023L196.136 135.878H198.428Z" fill="black"/>
<path d="M204.042 128.086H208.5C208.734 128.086 208.927 128.164 209.083 128.315C209.234 128.456 209.313 128.643 209.313 128.878C209.313 129.102 209.234 129.284 209.083 129.419C208.927 129.56 208.734 129.628 208.5 129.628H204.771L204.896 129.398V132.003L204.792 131.878H207.917C208.135 131.878 208.323 131.956 208.479 132.107C208.646 132.263 208.729 132.451 208.729 132.669C208.729 132.893 208.646 133.076 208.479 133.211C208.323 133.352 208.135 133.419 207.917 133.419H204.833L204.896 133.315V136.003L204.792 135.878H208.5C208.734 135.878 208.927 135.961 209.083 136.128C209.234 136.284 209.313 136.461 209.313 136.669C209.313 136.893 209.234 137.076 209.083 137.211C208.927 137.352 208.734 137.419 208.5 137.419H204.042C203.802 137.419 203.609 137.346 203.458 137.19C203.302 137.039 203.229 136.846 203.229 136.607V128.898C203.229 128.664 203.302 128.471 203.458 128.315C203.609 128.164 203.802 128.086 204.042 128.086Z" fill="black"/>
<path d="M216.812 128.065C217.031 128.065 217.229 128.143 217.395 128.294C217.562 128.435 217.645 128.617 217.645 128.836C217.645 128.95 217.614 129.065 217.562 129.19L214.27 136.898C214.187 137.08 214.067 137.211 213.916 137.294C213.776 137.377 213.63 137.419 213.479 137.419C213.338 137.409 213.197 137.356 213.062 137.273C212.937 137.19 212.833 137.075 212.75 136.919L209.458 129.169C209.427 129.127 209.406 129.08 209.395 129.023C209.395 128.955 209.395 128.893 209.395 128.836C209.395 128.586 209.484 128.393 209.666 128.252C209.859 128.117 210.041 128.044 210.208 128.044C210.552 128.044 210.796 128.221 210.937 128.565L213.875 135.44H213.395L216.083 128.565C216.234 128.231 216.479 128.065 216.812 128.065Z" fill="black"/>
<path d="M218.995 128.086H223.453C223.688 128.086 223.881 128.164 224.037 128.315C224.188 128.456 224.266 128.643 224.266 128.878C224.266 129.102 224.188 129.284 224.037 129.419C223.881 129.56 223.688 129.628 223.453 129.628H219.724L219.849 129.398V132.003L219.745 131.878H222.87C223.089 131.878 223.276 131.956 223.433 132.107C223.599 132.263 223.683 132.451 223.683 132.669C223.683 132.893 223.599 133.076 223.433 133.211C223.276 133.352 223.089 133.419 222.87 133.419H219.787L219.849 133.315V136.003L219.745 135.878H223.453C223.688 135.878 223.881 135.961 224.037 136.128C224.188 136.284 224.266 136.461 224.266 136.669C224.266 136.893 224.188 137.076 224.037 137.211C223.881 137.352 223.688 137.419 223.453 137.419H218.995C218.756 137.419 218.563 137.346 218.412 137.19C218.256 137.039 218.183 136.846 218.183 136.607V128.898C218.183 128.664 218.256 128.471 218.412 128.315C218.563 128.164 218.756 128.086 218.995 128.086Z" fill="black"/>
<path d="M230.099 135.857C230.333 135.857 230.526 135.935 230.682 136.086C230.833 136.227 230.911 136.414 230.911 136.648C230.911 136.872 230.833 137.06 230.682 137.211C230.526 137.352 230.333 137.419 230.099 137.419H225.766C225.526 137.419 225.333 137.346 225.182 137.19C225.026 137.039 224.953 136.846 224.953 136.607V128.898C224.953 128.664 225.026 128.471 225.182 128.315C225.349 128.164 225.557 128.086 225.807 128.086C226.016 128.086 226.203 128.164 226.37 128.315C226.536 128.471 226.62 128.664 226.62 128.898V136.086L226.328 135.857H230.099Z" fill="black"/>
<path d="M240.173 132.753C240.173 133.419 240.059 134.044 239.84 134.628C239.616 135.201 239.304 135.706 238.903 136.148C238.496 136.596 238.017 136.94 237.465 137.19C236.908 137.424 236.304 137.544 235.653 137.544C234.986 137.544 234.371 137.424 233.819 137.19C233.278 136.94 232.804 136.596 232.403 136.148C231.996 135.706 231.684 135.201 231.465 134.628C231.241 134.044 231.132 133.419 231.132 132.753C231.132 132.086 231.241 131.471 231.465 130.898C231.684 130.315 231.996 129.805 232.403 129.357C232.804 128.914 233.278 128.576 233.819 128.336C234.371 128.086 234.986 127.961 235.653 127.961C236.304 127.961 236.908 128.086 237.465 128.336C238.017 128.576 238.496 128.914 238.903 129.357C239.304 129.805 239.616 130.315 239.84 130.898C240.059 131.471 240.173 132.086 240.173 132.753ZM238.444 132.753C238.444 132.159 238.319 131.617 238.069 131.128C237.83 130.643 237.507 130.263 237.09 129.982C236.673 129.69 236.194 129.544 235.653 129.544C235.095 129.544 234.611 129.69 234.194 129.982C233.778 130.263 233.449 130.643 233.215 131.128C232.975 131.602 232.861 132.143 232.861 132.753C232.861 133.352 232.975 133.893 233.215 134.378C233.449 134.867 233.778 135.253 234.194 135.544C234.611 135.826 235.095 135.961 235.653 135.961C236.194 135.961 236.673 135.826 237.09 135.544C237.507 135.253 237.83 134.867 238.069 134.378C238.319 133.893 238.444 133.352 238.444 132.753Z" fill="black"/>
<path d="M244.707 128.086C245.165 128.086 245.592 128.221 245.998 128.482C246.4 128.747 246.728 129.107 246.978 129.565C247.228 130.023 247.353 130.534 247.353 131.086C247.353 131.643 247.228 132.148 246.978 132.607C246.728 133.055 246.4 133.414 245.998 133.69C245.592 133.956 245.165 134.086 244.707 134.086H242.248L242.394 133.836V136.607C242.394 136.846 242.316 137.039 242.165 137.19C242.025 137.346 241.837 137.419 241.603 137.419C241.379 137.419 241.196 137.346 241.061 137.19C240.92 137.039 240.853 136.846 240.853 136.607V128.898C240.853 128.664 240.926 128.471 241.082 128.315C241.233 128.164 241.426 128.086 241.665 128.086H244.707ZM244.707 132.565C244.873 132.565 245.03 132.497 245.186 132.357C245.353 132.221 245.488 132.039 245.603 131.815C245.712 131.581 245.769 131.336 245.769 131.086C245.769 130.826 245.712 130.581 245.603 130.357C245.488 130.138 245.353 129.961 245.186 129.836C245.03 129.701 244.873 129.628 244.707 129.628H242.228L242.394 129.378V132.773L242.248 132.565H244.707Z" fill="black"/>
<path d="M248.849 128.086H253.307C253.541 128.086 253.734 128.164 253.89 128.315C254.041 128.456 254.119 128.643 254.119 128.878C254.119 129.102 254.041 129.284 253.89 129.419C253.734 129.56 253.541 129.628 253.307 129.628H249.578L249.703 129.398V132.003L249.599 131.878H252.724C252.942 131.878 253.13 131.956 253.286 132.107C253.453 132.263 253.536 132.451 253.536 132.669C253.536 132.893 253.453 133.076 253.286 133.211C253.13 133.352 252.942 133.419 252.724 133.419H249.64L249.703 133.315V136.003L249.599 135.878H253.307C253.541 135.878 253.734 135.961 253.89 136.128C254.041 136.284 254.119 136.461 254.119 136.669C254.119 136.893 254.041 137.076 253.89 137.211C253.734 137.352 253.541 137.419 253.307 137.419H248.849C248.609 137.419 248.416 137.346 248.265 137.19C248.109 137.039 248.036 136.846 248.036 136.607V128.898C248.036 128.664 248.109 128.471 248.265 128.315C248.416 128.164 248.609 128.086 248.849 128.086Z" fill="black"/>
<path d="M255.765 137.419C255.515 137.419 255.291 137.346 255.098 137.19C254.9 137.039 254.807 136.846 254.807 136.607V128.898C254.807 128.664 254.879 128.471 255.036 128.315C255.187 128.164 255.379 128.086 255.619 128.086H259.452C259.921 128.086 260.359 128.211 260.765 128.461C261.166 128.701 261.494 129.034 261.744 129.461C261.994 129.893 262.119 130.393 262.119 130.961C262.119 131.294 262.046 131.622 261.911 131.94C261.77 132.263 261.583 132.555 261.348 132.815C261.109 133.065 260.848 133.263 260.557 133.398V133.107C260.807 133.232 261.015 133.388 261.182 133.565C261.348 133.747 261.478 133.951 261.577 134.169C261.671 134.378 261.728 134.602 261.744 134.836C261.77 135.06 261.791 135.253 261.807 135.419C261.817 135.586 261.848 135.732 261.89 135.857C261.932 135.971 262.004 136.055 262.119 136.107C262.312 136.232 262.432 136.409 262.473 136.628C262.525 136.836 262.484 137.023 262.348 137.19C262.249 137.305 262.124 137.378 261.973 137.419C261.817 137.445 261.666 137.445 261.515 137.419C261.359 137.378 261.234 137.336 261.14 137.294C260.984 137.201 260.833 137.065 260.682 136.898C260.525 136.721 260.4 136.482 260.307 136.19C260.223 135.898 260.182 135.523 260.182 135.065C260.182 134.914 260.15 134.773 260.098 134.648C260.041 134.513 259.963 134.398 259.869 134.315C259.77 134.221 259.645 134.148 259.494 134.107C259.338 134.055 259.166 134.023 258.973 134.023H256.265L256.473 133.711V136.607C256.473 136.846 256.411 137.039 256.286 137.19C256.161 137.346 255.984 137.419 255.765 137.419ZM256.286 132.648H259.39C259.557 132.648 259.708 132.581 259.848 132.44C259.999 132.289 260.124 132.086 260.223 131.836C260.333 131.576 260.39 131.294 260.39 131.003C260.39 130.602 260.275 130.273 260.057 130.023C259.848 129.763 259.624 129.628 259.39 129.628H256.307L256.473 129.19V132.961L256.286 132.648Z" fill="black"/>
</svg>
