<svg width="170" height="170" viewBox="0 0 170 170" fill="none" xmlns="http://www.w3.org/2000/svg">
<path d="M18.3735 94.5048H40.7449C40.5789 95.6981 40.4232 96.8447 40.2883 97.9497C40.1638 99.0444 40.1016 100.144 40.1016 101.249C40.1016 106.24 41.1185 109.696 43.1522 111.605C45.186 113.514 47.3909 114.469 49.7723 114.469C51.9721 114.469 53.9332 113.701 55.6661 112.165C57.4093 110.64 58.2809 107.683 58.2809 103.283C58.2809 100.57 57.897 97.9238 57.1395 95.3349C56.3768 92.7512 55.1265 89.6798 53.3833 86.1207C51.6504 82.5668 49.2172 78.0376 46.0783 72.5277C43.7955 68.4602 41.741 64.3097 39.9148 60.0762C38.0989 55.8426 36.6411 51.8062 35.536 47.9566C34.4257 44.0966 33.8758 40.8125 33.8758 38.0991C33.8758 31.7384 35.3129 26.4776 38.1923 22.3271C41.0821 18.1765 44.7917 15.0844 49.3158 13.0506C53.8502 11.0169 58.5351 10 63.3653 10C69.119 10 74.3071 11.2763 78.9298 13.8185C83.5473 16.3659 87.1893 20.1169 89.8457 25.0664C92.5124 30.0211 93.8509 36.1432 93.8509 43.4325C93.8509 45.2899 93.7264 47.2303 93.4774 49.264L71.106 49.1395C71.6145 46.3483 71.8739 43.8891 71.8739 41.7723C71.8739 37.7878 71.1735 34.9136 69.7779 33.1392C68.3771 31.3545 66.7065 30.4621 64.7557 30.4621C63.1474 30.4621 61.4768 31.1833 59.7336 32.6204C58.0007 34.0627 57.1395 36.7709 57.1395 40.7554C57.1395 43.3858 57.6428 46.5869 58.6544 50.3639C59.6765 54.1305 61.4145 58.2084 63.8634 62.608C68.6053 71.0906 72.3979 78.7224 75.2358 85.4982C78.0686 92.2635 79.4901 98.6553 79.4901 104.674C79.4901 110.941 77.9855 116.274 74.9868 120.674C71.9828 125.084 68.1488 128.415 63.4898 130.656C58.8257 132.897 53.9955 134.018 49.0045 134.018C43.9252 134.018 39.0121 132.783 34.2701 130.324C29.5229 127.875 25.6318 124.191 22.5863 119.283C19.5305 114.37 18 108.186 18 100.731C18 98.6968 18.1245 96.6216 18.3735 94.5048Z" fill="black"/>
<path d="M152.864 44.1796C152.864 47.4897 152.225 51.4119 150.954 55.9464C149.678 60.4704 147.748 65.2384 145.164 70.2449C142.591 75.2411 139.25 80.1543 135.141 84.9793C131.032 89.8095 126.181 94.2973 120.593 98.4478C115 102.598 108.583 106.054 101.335 108.803C94.0973 111.558 85.9882 113.276 77.0127 113.95V91.3296C82.6003 90.8212 87.5965 89.9288 91.9961 88.6525C91.2334 85.4463 90.5953 81.7834 90.0869 77.6744C89.5888 73.5654 89.3398 68.372 89.3398 62.0892C89.3398 55.7388 90.118 49.4715 91.6848 43.2873C93.2465 37.103 95.5292 31.5153 98.5332 26.5191C101.548 21.5281 105.174 17.528 109.408 14.5241C113.641 11.5098 118.425 10 123.768 10C130.378 10 135.846 11.4423 140.163 14.3166C144.48 17.196 147.675 21.2012 149.751 26.3323C151.826 31.4531 152.864 37.4039 152.864 44.1796ZM111.317 79.1271C116.142 75.4902 120.017 71.5316 122.938 67.2566C125.854 62.9711 127.971 58.7272 129.289 54.5352C130.601 50.3432 131.26 46.727 131.26 43.6816C131.26 35.5465 128.759 31.479 123.768 31.479C121.403 31.479 119.369 32.5374 117.667 34.6542C115.976 36.7709 114.58 39.5258 113.475 42.9137C112.365 46.3068 111.555 49.9696 111.047 53.9126C110.549 57.8452 110.3 61.6326 110.3 65.2851C110.3 67.8999 110.383 70.3798 110.549 72.7145C110.715 75.0388 110.969 77.1763 111.317 79.1271ZM118.041 104.279C121.693 112.331 126.539 118.37 132.588 122.396C138.648 126.422 144.941 128.897 151.473 129.826V157.655C146.56 157.058 141.496 155.642 136.282 153.401C131.079 151.16 126.082 148.13 121.299 144.311C116.51 140.503 112.147 135.953 108.204 130.656C104.261 125.359 101.013 119.361 98.4709 112.663C101.693 111.989 104.282 111.226 106.232 110.381C108.183 109.54 110.02 108.611 111.753 107.6C113.496 106.578 115.592 105.473 118.041 104.279Z" fill="black"/>
<path d="M29.7874 146.926C29.5383 146.926 29.336 146.853 29.1856 146.698C29.0299 146.547 28.9573 146.355 28.9573 146.117V138.438C28.9573 138.205 29.0299 138.013 29.1856 137.857C29.336 137.707 29.528 137.629 29.7666 137.629H34.0832C34.3166 137.629 34.5086 137.707 34.6643 137.857C34.8147 137.997 34.8925 138.184 34.8925 138.418C34.8925 138.615 34.8147 138.786 34.6643 138.936C34.5086 139.092 34.3166 139.165 34.0832 139.165H30.493L30.6175 138.999V141.676L30.5345 141.489H33.4814C33.7148 141.489 33.9068 141.567 34.0624 141.717C34.2129 141.857 34.2907 142.044 34.2907 142.278C34.2907 142.475 34.2129 142.646 34.0624 142.796C33.9068 142.952 33.7148 143.025 33.4814 143.025H30.493L30.6175 142.9V146.117C30.6175 146.355 30.5345 146.547 30.3685 146.698C30.2024 146.853 30.0053 146.926 29.7874 146.926Z" fill="black"/>
<path d="M36.5235 146.926C36.2744 146.926 36.0513 146.853 35.8594 146.698C35.6622 146.547 35.5688 146.355 35.5688 146.117V138.438C35.5688 138.205 35.6415 138.013 35.7971 137.857C35.9476 137.707 36.1395 137.629 36.3782 137.629H40.1967C40.6636 137.629 41.0994 137.753 41.5041 138.002C41.9036 138.241 42.2304 138.573 42.4795 138.999C42.7285 139.429 42.853 139.927 42.853 140.493C42.853 140.825 42.7804 141.152 42.6455 141.468C42.5054 141.79 42.3186 142.08 42.0852 142.34C41.8465 142.589 41.5871 142.786 41.2966 142.921V142.63C41.5456 142.755 41.7531 142.91 41.9192 143.087C42.0852 143.268 42.2149 143.471 42.3135 143.689C42.4068 143.896 42.4639 144.119 42.4795 144.353C42.5054 144.576 42.5262 144.768 42.5417 144.934C42.5521 145.1 42.5832 145.245 42.6247 145.37C42.6663 145.484 42.7389 145.567 42.853 145.619C43.045 145.743 43.1643 145.92 43.2058 146.137C43.2577 146.345 43.2162 146.532 43.0813 146.698C42.9827 146.812 42.8582 146.885 42.7078 146.926C42.5521 146.952 42.4017 146.952 42.2512 146.926C42.0956 146.885 41.971 146.843 41.8777 146.802C41.722 146.708 41.5716 146.573 41.4211 146.407C41.2654 146.231 41.1409 145.992 41.0475 145.702C40.9645 145.411 40.923 145.038 40.923 144.581C40.923 144.431 40.8919 144.291 40.84 144.166C40.783 144.031 40.7051 143.917 40.6117 143.834C40.5132 143.741 40.3887 143.668 40.2382 143.626C40.0826 143.575 39.9113 143.543 39.7194 143.543H37.0215L37.2291 143.232V146.117C37.2291 146.355 37.1668 146.547 37.0423 146.698C36.9178 146.853 36.7414 146.926 36.5235 146.926ZM37.0423 142.174H40.1344C40.3005 142.174 40.4509 142.106 40.591 141.966C40.7414 141.816 40.866 141.613 40.9645 141.364C41.0735 141.105 41.1306 140.825 41.1306 140.534C41.1306 140.135 41.0164 139.808 40.7985 139.559C40.591 139.299 40.3679 139.165 40.1344 139.165H37.063L37.2291 138.729V142.485L37.0423 142.174Z" fill="black"/>
<path d="M52.3897 142.277C52.3897 142.941 52.2756 143.564 52.0577 144.145C51.8346 144.715 51.5233 145.219 51.1238 145.66C50.7191 146.106 50.2418 146.448 49.6919 146.697C49.1367 146.931 48.5349 147.05 47.8864 147.05C47.2223 147.05 46.6101 146.931 46.0601 146.697C45.5206 146.448 45.0485 146.106 44.649 145.66C44.2443 145.219 43.933 144.715 43.7151 144.145C43.492 143.564 43.3831 142.941 43.3831 142.277C43.3831 141.613 43.492 141.001 43.7151 140.43C43.933 139.849 44.2443 139.341 44.649 138.894C45.0485 138.453 45.5206 138.116 46.0601 137.877C46.6101 137.628 47.2223 137.504 47.8864 137.504C48.5349 137.504 49.1367 137.628 49.6919 137.877C50.2418 138.116 50.7191 138.453 51.1238 138.894C51.5233 139.341 51.8346 139.849 52.0577 140.43C52.2756 141.001 52.3897 141.613 52.3897 142.277ZM50.6672 142.277C50.6672 141.686 50.5427 141.146 50.2937 140.658C50.055 140.176 49.7334 139.797 49.3183 139.517C48.9033 139.226 48.426 139.081 47.8864 139.081C47.3312 139.081 46.8487 139.226 46.4337 139.517C46.0186 139.797 45.6918 140.176 45.4583 140.658C45.2197 141.13 45.1055 141.67 45.1055 142.277C45.1055 142.874 45.2197 143.413 45.4583 143.896C45.6918 144.383 46.0186 144.767 46.4337 145.058C46.8487 145.338 47.3312 145.473 47.8864 145.473C48.426 145.473 48.9033 145.338 49.3183 145.058C49.7334 144.767 50.055 144.383 50.2937 143.896C50.5427 143.413 50.6672 142.874 50.6672 142.277Z" fill="black"/>
<path d="M60.1221 137.629C60.3296 137.629 60.4956 137.702 60.6201 137.836C60.755 137.977 60.8277 138.158 60.8277 138.376V146.117C60.8277 146.355 60.7498 146.547 60.5994 146.698C60.4437 146.853 60.2518 146.926 60.0183 146.926C59.9042 146.926 59.79 146.905 59.6655 146.864C59.5514 146.822 59.4632 146.77 59.3957 146.698L54.1868 140.078L54.5188 139.87V146.179C54.5188 146.402 54.4462 146.584 54.3113 146.719C54.1868 146.859 54.0104 146.926 53.7925 146.926C53.5694 146.926 53.3878 146.859 53.2529 146.719C53.1284 146.584 53.0662 146.402 53.0662 146.179V138.438C53.0662 138.205 53.1388 138.013 53.2944 137.857C53.4449 137.707 53.6369 137.629 53.8755 137.629C54 137.629 54.1245 137.66 54.2491 137.712C54.384 137.753 54.4877 137.826 54.5604 137.919L59.624 144.374L59.3957 144.54V138.376C59.3957 138.158 59.458 137.977 59.5825 137.836C59.7174 137.702 59.899 137.629 60.1221 137.629Z" fill="black"/>
<path d="M65.129 146.926C64.88 146.926 64.6725 146.853 64.5065 146.698C64.3508 146.547 64.2782 146.355 64.2782 146.117V138.418H66.0006V146.117C66.0006 146.355 65.9176 146.547 65.7516 146.698C65.5856 146.853 65.3781 146.926 65.129 146.926ZM62.1822 139.165C61.9591 139.165 61.7671 139.097 61.6011 138.957C61.4454 138.807 61.3728 138.615 61.3728 138.376C61.3728 138.158 61.4454 137.977 61.6011 137.836C61.7671 137.702 61.9591 137.629 62.1822 137.629H68.0759C68.3094 137.629 68.5013 137.702 68.657 137.836C68.8074 137.977 68.8853 138.163 68.8853 138.397C68.8853 138.635 68.8074 138.822 68.657 138.957C68.5013 139.097 68.3094 139.165 68.0759 139.165H62.1822Z" fill="black"/>
<path d="M70.2451 137.629H74.6862C74.9197 137.629 75.1116 137.707 75.2673 137.857C75.4177 137.997 75.4956 138.184 75.4956 138.418C75.4956 138.641 75.4177 138.822 75.2673 138.957C75.1116 139.097 74.9197 139.165 74.6862 139.165H70.9715L71.096 138.936V141.53L70.9922 141.406H74.1051C74.323 141.406 74.5098 141.484 74.6655 141.634C74.8315 141.79 74.9145 141.977 74.9145 142.194C74.9145 142.418 74.8315 142.599 74.6655 142.734C74.5098 142.874 74.323 142.942 74.1051 142.942H71.0337L71.096 142.838V145.515L70.9922 145.39H74.6862C74.9197 145.39 75.1116 145.473 75.2673 145.639C75.4177 145.795 75.4956 145.971 75.4956 146.179C75.4956 146.402 75.4177 146.584 75.2673 146.719C75.1116 146.859 74.9197 146.926 74.6862 146.926H70.2451C70.0065 146.926 69.8145 146.853 69.6641 146.698C69.5084 146.547 69.4358 146.355 69.4358 146.117V138.438C69.4358 138.205 69.5084 138.013 69.6641 137.857C69.8145 137.707 70.0065 137.629 70.2451 137.629Z" fill="black"/>
<path d="M83.2356 137.629C83.4431 137.629 83.6091 137.702 83.7337 137.836C83.8685 137.977 83.9412 138.158 83.9412 138.376V146.117C83.9412 146.355 83.8634 146.547 83.7129 146.698C83.5573 146.853 83.3653 146.926 83.1318 146.926C83.0177 146.926 82.9035 146.905 82.779 146.864C82.6649 146.822 82.5767 146.77 82.5092 146.698L77.3003 140.078L77.6324 139.87V146.179C77.6324 146.402 77.5597 146.584 77.4248 146.719C77.3003 146.859 77.1239 146.926 76.906 146.926C76.6829 146.926 76.5014 146.859 76.3665 146.719C76.2419 146.584 76.1797 146.402 76.1797 146.179V138.438C76.1797 138.205 76.2523 138.013 76.408 137.857C76.5584 137.707 76.7504 137.629 76.989 137.629C77.1136 137.629 77.2381 137.66 77.3626 137.712C77.4975 137.753 77.6012 137.826 77.6739 137.919L82.7375 144.374L82.5092 144.54V138.376C82.5092 138.158 82.5715 137.977 82.696 137.836C82.8309 137.702 83.0125 137.629 83.2356 137.629Z" fill="black"/>
<path d="M89.0722 137.629C89.7051 137.629 90.2758 137.753 90.7739 138.002C91.2719 138.241 91.687 138.573 92.019 138.999C92.3615 139.429 92.6209 139.927 92.7869 140.493C92.9633 141.048 93.0567 141.645 93.0567 142.278C93.0567 143.139 92.8958 143.917 92.5794 144.623C92.2733 145.328 91.8219 145.888 91.2304 146.304C90.6494 146.719 89.9282 146.926 89.0722 146.926H85.897C85.6583 146.926 85.4664 146.853 85.3159 146.698C85.1603 146.547 85.0876 146.355 85.0876 146.117V138.438C85.0876 138.205 85.1603 138.013 85.3159 137.857C85.4664 137.707 85.6583 137.629 85.897 137.629H89.0722ZM88.9476 145.39C89.4976 145.39 89.949 145.256 90.2966 144.975C90.6545 144.685 90.9191 144.306 91.0852 143.834C91.2512 143.351 91.3342 142.833 91.3342 142.278C91.3342 141.862 91.2823 141.468 91.1889 141.095C91.0904 140.721 90.9451 140.389 90.7531 140.098C90.556 139.808 90.3069 139.58 90.006 139.414C89.7155 139.248 89.3627 139.165 88.9476 139.165H86.6233L86.7479 139.04V145.536L86.6648 145.39H88.9476Z" fill="black"/>
<path d="M66.8102 150.578C67.4431 150.578 68.0138 150.703 68.5119 150.952C69.01 151.19 69.425 151.522 69.7571 151.948C70.0995 152.378 70.3589 152.876 70.5249 153.442C70.7013 153.997 70.7947 154.594 70.7947 155.227C70.7947 156.088 70.6339 156.866 70.3174 157.572C70.0113 158.277 69.5599 158.838 68.9685 159.253C68.3874 159.668 67.6662 159.875 66.8102 159.875H63.635C63.3964 159.875 63.2044 159.803 63.054 159.647C62.8983 159.497 62.8257 159.305 62.8257 159.066V151.387C62.8257 151.154 62.8983 150.962 63.054 150.806C63.2044 150.656 63.3964 150.578 63.635 150.578H66.8102ZM66.6857 158.34C67.2356 158.34 67.687 158.205 68.0346 157.925C68.3926 157.634 68.6572 157.255 68.8232 156.783C68.9892 156.301 69.0722 155.782 69.0722 155.227C69.0722 154.812 69.0203 154.417 68.927 154.044C68.8284 153.67 68.6831 153.338 68.4912 153.048C68.294 152.757 68.045 152.529 67.7441 152.363C67.4535 152.197 67.1007 152.114 66.6857 152.114H64.3614L64.4859 151.989V158.485L64.4029 158.34H66.6857Z" fill="black"/>
<path d="M72.2776 150.578H76.7187C76.9521 150.578 77.1441 150.656 77.2998 150.806C77.4502 150.946 77.528 151.133 77.528 151.367C77.528 151.59 77.4502 151.771 77.2998 151.906C77.1441 152.046 76.9521 152.114 76.7187 152.114H73.004L73.1285 151.886V154.48L73.0247 154.355H76.1376C76.3555 154.355 76.5423 154.433 76.6979 154.583C76.864 154.739 76.947 154.926 76.947 155.144C76.947 155.367 76.864 155.548 76.6979 155.683C76.5423 155.823 76.3555 155.891 76.1376 155.891H73.0662L73.1285 155.787V158.464L73.0247 158.34H76.7187C76.9521 158.34 77.1441 158.423 77.2998 158.589C77.4502 158.744 77.528 158.921 77.528 159.128C77.528 159.351 77.4502 159.533 77.2998 159.668C77.1441 159.808 76.9521 159.875 76.7187 159.875H72.2776C72.039 159.875 71.847 159.803 71.6965 159.647C71.5409 159.497 71.4683 159.305 71.4683 159.066V151.387C71.4683 151.154 71.5409 150.962 71.6965 150.806C71.847 150.656 72.039 150.578 72.2776 150.578Z" fill="black"/>
<path d="M84.9988 150.557C85.2167 150.557 85.4138 150.635 85.5799 150.786C85.7459 150.926 85.8289 151.107 85.8289 151.325C85.8289 151.439 85.7978 151.554 85.7459 151.678L82.467 159.356C82.384 159.538 82.2646 159.668 82.1142 159.751C81.9741 159.834 81.8288 159.875 81.6784 159.875C81.5383 159.865 81.3982 159.813 81.2633 159.73C81.1388 159.647 81.035 159.533 80.952 159.377L77.6731 151.657C77.642 151.616 77.6212 151.569 77.6108 151.512C77.6108 151.445 77.6108 151.382 77.6108 151.325C77.6108 151.076 77.699 150.884 77.8806 150.744C78.0726 150.609 78.2542 150.537 78.4202 150.537C78.7626 150.537 79.0065 150.713 79.1465 151.055L82.0727 157.904H81.5953L84.2724 151.055C84.4229 150.723 84.6667 150.557 84.9988 150.557Z" fill="black"/>
<path d="M87.1731 150.578H91.6142C91.8477 150.578 92.0396 150.656 92.1953 150.806C92.3457 150.946 92.4235 151.133 92.4235 151.367C92.4235 151.59 92.3457 151.771 92.1953 151.906C92.0396 152.046 91.8477 152.114 91.6142 152.114H87.8995L88.024 151.886V154.48L87.9202 154.355H91.0331C91.251 154.355 91.4378 154.433 91.5934 154.583C91.7595 154.739 91.8425 154.926 91.8425 155.144C91.8425 155.367 91.7595 155.548 91.5934 155.683C91.4378 155.823 91.251 155.891 91.0331 155.891H87.9617L88.024 155.787V158.464L87.9202 158.34H91.6142C91.8477 158.34 92.0396 158.423 92.1953 158.589C92.3457 158.744 92.4235 158.921 92.4235 159.128C92.4235 159.351 92.3457 159.533 92.1953 159.668C92.0396 159.808 91.8477 159.875 91.6142 159.875H87.1731C86.9345 159.875 86.7425 159.803 86.592 159.647C86.4364 159.497 86.3638 159.305 86.3638 159.066V151.387C86.3638 151.154 86.4364 150.962 86.592 150.806C86.7425 150.656 86.9345 150.578 87.1731 150.578Z" fill="black"/>
<path d="M98.2338 158.319C98.4673 158.319 98.6592 158.397 98.8149 158.547C98.9653 158.687 99.0432 158.874 99.0432 159.107C99.0432 159.331 98.9653 159.517 98.8149 159.668C98.6592 159.808 98.4673 159.875 98.2338 159.875H93.9173C93.6786 159.875 93.4866 159.803 93.3362 159.647C93.1805 159.497 93.1079 159.305 93.1079 159.066V151.387C93.1079 151.154 93.1805 150.962 93.3362 150.806C93.5022 150.656 93.7097 150.578 93.9588 150.578C94.1663 150.578 94.3531 150.656 94.5191 150.806C94.6851 150.962 94.7681 151.154 94.7681 151.387V158.547L94.4776 158.319H98.2338Z" fill="black"/>
<path d="M108.27 155.227C108.27 155.891 108.155 156.513 107.938 157.094C107.714 157.665 107.403 158.168 107.004 158.609C106.599 159.056 106.122 159.398 105.572 159.647C105.017 159.881 104.415 160 103.766 160C103.102 160 102.49 159.881 101.94 159.647C101.4 159.398 100.928 159.056 100.529 158.609C100.124 158.168 99.8129 157.665 99.595 157.094C99.3719 156.513 99.2629 155.891 99.2629 155.227C99.2629 154.563 99.3719 153.95 99.595 153.38C99.8129 152.799 100.124 152.29 100.529 151.844C100.928 151.403 101.4 151.066 101.94 150.827C102.49 150.578 103.102 150.454 103.766 150.454C104.415 150.454 105.017 150.578 105.572 150.827C106.122 151.066 106.599 151.403 107.004 151.844C107.403 152.29 107.714 152.799 107.938 153.38C108.155 153.95 108.27 154.563 108.27 155.227ZM106.547 155.227C106.547 154.635 106.423 154.096 106.174 153.608C105.935 153.126 105.613 152.747 105.198 152.467C104.783 152.176 104.306 152.031 103.766 152.031C103.211 152.031 102.729 152.176 102.314 152.467C101.899 152.747 101.572 153.126 101.338 153.608C101.1 154.08 100.985 154.62 100.985 155.227C100.985 155.823 101.1 156.363 101.338 156.845C101.572 157.333 101.899 157.717 102.314 158.008C102.729 158.288 103.211 158.423 103.766 158.423C104.306 158.423 104.783 158.288 105.198 158.008C105.613 157.717 105.935 157.333 106.174 156.845C106.423 156.363 106.547 155.823 106.547 155.227Z" fill="black"/>
<path d="M112.785 150.578C113.242 150.578 113.667 150.713 114.072 150.972C114.471 151.237 114.798 151.595 115.047 152.052C115.296 152.508 115.421 153.017 115.421 153.567C115.421 154.122 115.296 154.625 115.047 155.081C114.798 155.528 114.471 155.886 114.072 156.161C113.667 156.425 113.242 156.555 112.785 156.555H110.336L110.482 156.306V159.066C110.482 159.305 110.404 159.497 110.253 159.647C110.113 159.803 109.927 159.875 109.693 159.875C109.47 159.875 109.288 159.803 109.154 159.647C109.013 159.497 108.946 159.305 108.946 159.066V151.387C108.946 151.154 109.019 150.962 109.174 150.806C109.325 150.656 109.517 150.578 109.755 150.578H112.785ZM112.785 155.04C112.951 155.04 113.107 154.972 113.263 154.832C113.429 154.698 113.564 154.516 113.678 154.293C113.787 154.059 113.844 153.816 113.844 153.567C113.844 153.307 113.787 153.063 113.678 152.84C113.564 152.622 113.429 152.446 113.263 152.321C113.107 152.186 112.951 152.114 112.785 152.114H110.316L110.482 151.865V155.247L110.336 155.04H112.785Z" fill="black"/>
<path d="M116.911 150.578H121.352C121.586 150.578 121.778 150.656 121.933 150.806C122.084 150.946 122.162 151.133 122.162 151.367C122.162 151.59 122.084 151.771 121.933 151.906C121.778 152.046 121.586 152.114 121.352 152.114H117.638L117.762 151.886V154.48L117.658 154.355H120.771C120.989 154.355 121.176 154.433 121.331 154.583C121.497 154.739 121.581 154.926 121.581 155.144C121.581 155.367 121.497 155.548 121.331 155.683C121.176 155.823 120.989 155.891 120.771 155.891H117.7L117.762 155.787V158.464L117.658 158.34H121.352C121.586 158.34 121.778 158.423 121.933 158.589C122.084 158.744 122.162 158.921 122.162 159.128C122.162 159.351 122.084 159.533 121.933 159.668C121.778 159.808 121.586 159.875 121.352 159.875H116.911C116.673 159.875 116.481 159.803 116.33 159.647C116.174 159.497 116.102 159.305 116.102 159.066V151.387C116.102 151.154 116.174 150.962 116.33 150.806C116.481 150.656 116.673 150.578 116.911 150.578Z" fill="black"/>
<path d="M123.801 159.875C123.552 159.875 123.328 159.803 123.136 159.647C122.939 159.497 122.846 159.305 122.846 159.066V151.387C122.846 151.154 122.919 150.962 123.074 150.806C123.225 150.656 123.417 150.578 123.655 150.578H127.474C127.941 150.578 128.377 150.703 128.781 150.952C129.181 151.19 129.508 151.522 129.757 151.948C130.006 152.378 130.13 152.876 130.13 153.442C130.13 153.774 130.057 154.101 129.923 154.417C129.783 154.739 129.596 155.03 129.362 155.289C129.124 155.538 128.864 155.735 128.574 155.87V155.58C128.823 155.704 129.03 155.86 129.196 156.036C129.362 156.218 129.492 156.42 129.591 156.638C129.684 156.845 129.741 157.069 129.757 157.302C129.783 157.525 129.803 157.717 129.819 157.883C129.829 158.049 129.86 158.194 129.902 158.319C129.943 158.433 130.016 158.516 130.13 158.568C130.322 158.692 130.441 158.869 130.483 159.087C130.535 159.294 130.493 159.481 130.358 159.647C130.26 159.761 130.135 159.834 129.985 159.875C129.829 159.901 129.679 159.901 129.528 159.875C129.373 159.834 129.248 159.792 129.155 159.751C128.999 159.657 128.849 159.523 128.698 159.356C128.543 159.18 128.418 158.941 128.325 158.651C128.242 158.36 128.2 157.987 128.2 157.53C128.2 157.38 128.169 157.24 128.117 157.115C128.06 156.98 127.982 156.866 127.889 156.783C127.79 156.69 127.666 156.617 127.515 156.576C127.36 156.524 127.188 156.493 126.996 156.493H124.299L124.506 156.181V159.066C124.506 159.305 124.444 159.497 124.319 159.647C124.195 159.803 124.018 159.875 123.801 159.875ZM124.319 155.123H127.412C127.578 155.123 127.728 155.056 127.868 154.915C128.019 154.765 128.143 154.563 128.242 154.314C128.351 154.054 128.408 153.774 128.408 153.483C128.408 153.084 128.294 152.757 128.076 152.508C127.868 152.249 127.645 152.114 127.412 152.114H124.34L124.506 151.678V155.434L124.319 155.123Z" fill="black"/>
</svg>
